<?xml version="1.0" standalone="no"?>
<!DOCTYPE svg PUBLIC "-//W3C//DTD SVG 20010904//EN"
 "http://www.w3.org/TR/2001/REC-SVG-20010904/DTD/svg10.dtd">
<svg version="1.0" xmlns="http://www.w3.org/2000/svg"
 width="6692.000000pt" height="392.000000pt" viewBox="0 0 6692.000000 392.000000"
 preserveAspectRatio="xMidYMid meet">

<g transform="translate(0.000000,392.000000) scale(0.100000,-0.100000)"
fill="#000000" stroke="none">
<path d="M0 1960 l0 -1960 1365 0 1365 0 0 1770 0 1770 6590 0 6590 0 0 190 0
190 -7955 0 -7955 0 0 -1960z m1940 1150 l0 -190 195 0 195 0 0 -390 0 -390
-195 0 -195 0 0 -190 0 -190 -580 0 -580 0 0 -580 0 -580 -195 0 -195 0 0
1350 0 1350 775 0 775 0 0 -190z"/>
<path d="M780 2530 l0 -390 580 0 580 0 0 390 0 390 -580 0 -580 0 0 -390z"/>
<path d="M3100 1955 l0 -1355 970 0 970 0 0 1355 0 1355 -970 0 -970 0 0
-1355z m1550 0 l0 -965 -580 0 -580 0 0 965 0 965 580 0 580 0 0 -965z"/>
<path d="M5820 1955 l0 -1355 195 0 195 0 0 965 0 965 190 0 190 0 0 -385 0
-385 195 0 195 0 0 385 0 385 195 0 195 0 0 -965 0 -965 195 0 195 0 0 1355 0
1355 -195 0 -195 0 0 -195 0 -195 -195 0 -195 0 0 -195 0 -195 -195 0 -195 0
0 195 0 195 -190 0 -190 0 -2 193 -3 192 -192 3 -193 2 0 -1355z"/>
<path d="M8540 1955 l0 -1355 970 0 970 0 0 195 0 195 -775 0 -775 0 0 385 0
385 580 0 580 0 0 190 0 190 -580 0 -580 0 0 390 0 390 775 0 775 0 0 195 0
195 -970 0 -970 0 0 -1355z"/>
<path d="M11250 1955 l0 -1355 970 0 970 0 0 195 0 195 -775 0 -775 0 -2 1158
-3 1157 -192 3 -193 2 0 -1355z"/>
<path d="M13970 1955 l0 -1355 970 0 970 0 0 1355 0 1355 -970 0 -970 0 0
-1355z m1550 0 l0 -965 -580 0 -580 0 0 965 0 965 580 0 580 0 0 -965z"/>
</g>
</svg>
